<?xml version="1.0" encoding="UTF-8"?>
<svg xmlns="http://www.w3.org/2000/svg" xmlns:xlink="http://www.w3.org/1999/xlink" width="841.89pt" height="138pt" viewBox="0 0 841.89 138" version="1.1">
<g id="surface1">
<path style=" stroke:none;fill-rule:evenodd;fill:rgb(96.116638%,48.744202%,7.765198%);fill-opacity:1;" d="M 262.242188 44.007812 C 261.273438 47.894531 256.214844 54.773438 244.71875 54.773438 C 233.910156 54.773438 225.527344 48.660156 225.527344 37.0625 C 225.527344 26.574219 231.34375 18.722656 245.269531 18.722656 C 257.046875 18.722656 260.925781 25.878906 261.480469 27.613281 L 271.316406 27.613281 C 270.554688 24.90625 267.230469 10.25 244.71875 10.25 C 224.699219 10.25 215.484375 21.226562 215.484375 35.949219 C 215.484375 54.355469 228.023438 63.246094 243.957031 63.246094 C 267.09375 63.246094 271.109375 49.632812 272.078125 44.007812 Z M 262.242188 44.007812 "/>
<path style=" stroke:none;fill-rule:evenodd;fill:rgb(96.116638%,48.744202%,7.765198%);fill-opacity:1;" d="M 277.480469 37.128906 C 277.480469 47.617188 283.648438 63.246094 307.476562 63.246094 C 331.308594 63.246094 337.472656 47.617188 337.472656 37.128906 C 337.472656 23.308594 329.644531 10.25 307.476562 10.25 C 285.308594 10.25 277.480469 23.308594 277.480469 37.128906 M 307.476562 54.769531 C 298.054688 54.769531 287.320312 50.882812 287.320312 36.574219 C 287.320312 24.421875 295.976562 18.722656 307.476562 18.722656 C 318.976562 18.722656 327.636719 24.421875 327.636719 36.574219 C 327.636719 50.882812 316.898438 54.769531 307.476562 54.769531 "/>
<path style=" stroke:none;fill-rule:evenodd;fill:rgb(96.116638%,48.744202%,7.765198%);fill-opacity:1;" d="M 346.128906 61.996094 L 355.550781 61.996094 L 355.550781 24.210938 L 390.605469 61.996094 L 399.609375 61.996094 L 399.609375 11.5 L 390.1875 11.5 L 390.1875 47.964844 L 356.523438 11.5 L 346.128906 11.5 Z M 346.128906 61.996094 "/>
<path style=" stroke:none;fill-rule:evenodd;fill:rgb(96.116638%,48.744202%,7.765198%);fill-opacity:1;" d="M 454.609375 44.007812 C 453.640625 47.894531 448.585938 54.773438 437.085938 54.773438 C 426.28125 54.773438 417.898438 48.660156 417.898438 37.0625 C 417.898438 26.574219 423.714844 18.722656 437.636719 18.722656 C 449.417969 18.722656 453.296875 25.878906 453.847656 27.613281 L 463.683594 27.613281 C 462.925781 24.90625 459.597656 10.25 437.085938 10.25 C 417.0625 10.25 407.851562 21.226562 407.851562 35.949219 C 407.851562 54.355469 420.390625 63.246094 436.324219 63.246094 C 459.460938 63.246094 463.476562 49.632812 464.449219 44.007812 Z M 454.609375 44.007812 "/>
<path style=" stroke:none;fill-rule:evenodd;fill:rgb(96.116638%,48.744202%,7.765198%);fill-opacity:1;" d="M 526.585938 11.5 L 516.746094 11.5 L 516.746094 39.628906 C 516.746094 47.964844 513.769531 54.773438 499.847656 54.773438 C 485.921875 54.773438 482.941406 47.964844 482.941406 39.628906 L 482.941406 11.5 L 473.105469 11.5 L 473.105469 40.324219 C 473.105469 56.578125 483.429688 63.246094 499.847656 63.246094 C 516.265625 63.246094 526.585938 56.578125 526.585938 40.324219 Z M 526.585938 11.5 "/>
<path style=" stroke:none;fill-rule:evenodd;fill:rgb(96.116638%,48.744202%,7.765198%);fill-opacity:1;" d="M 538.5 61.996094 L 548.335938 61.996094 L 548.335938 42.132812 L 563.925781 42.132812 L 578.539062 61.996094 L 590.660156 61.996094 L 575.214844 41.4375 C 582.628906 41.019531 589.277344 35.878906 589.277344 26.574219 C 589.277344 14.210938 580.6875 11.5 568.769531 11.5 L 538.5 11.5 Z M 548.335938 33.933594 L 548.335938 19.695312 L 567.3125 19.695312 C 575.351562 19.695312 579.4375 20.878906 579.4375 26.78125 C 579.4375 32.753906 575.351562 33.933594 567.3125 33.933594 Z M 548.335938 33.933594 "/>
<path style=" stroke:none;fill-rule:evenodd;fill:rgb(96.116638%,48.744202%,7.765198%);fill-opacity:1;" d="M 600.085938 61.996094 L 609.921875 61.996094 L 609.921875 42.132812 L 625.507812 42.132812 L 640.121094 61.996094 L 652.246094 61.996094 L 636.796875 41.4375 C 644.210938 41.019531 650.859375 35.878906 650.859375 26.574219 C 650.859375 14.210938 642.269531 11.5 630.355469 11.5 L 600.085938 11.5 Z M 609.921875 33.933594 L 609.921875 19.695312 L 628.898438 19.695312 C 636.9375 19.695312 641.023438 20.878906 641.023438 26.78125 C 641.023438 32.753906 636.9375 33.933594 628.898438 33.933594 Z M 609.921875 33.933594 "/>
<path style=" stroke:none;fill-rule:evenodd;fill:rgb(96.116638%,48.744202%,7.765198%);fill-opacity:1;" d="M 661.664062 61.996094 L 707.660156 61.996094 L 707.660156 53.523438 L 671.503906 53.523438 L 671.503906 40.1875 L 701.914062 40.1875 L 701.914062 31.710938 L 671.503906 31.710938 L 671.503906 19.976562 L 706.832031 19.976562 L 706.832031 11.5 L 661.664062 11.5 Z M 661.664062 61.996094 "/>
<path style=" stroke:none;fill-rule:evenodd;fill:rgb(96.116638%,48.744202%,7.765198%);fill-opacity:1;" d="M 715.558594 61.996094 L 724.980469 61.996094 L 724.980469 24.210938 L 760.03125 61.996094 L 769.039062 61.996094 L 769.039062 11.5 L 759.617188 11.5 L 759.617188 47.964844 L 725.949219 11.5 L 715.558594 11.5 Z M 715.558594 61.996094 "/>
<path style=" stroke:none;fill-rule:evenodd;fill:rgb(96.116638%,48.744202%,7.765198%);fill-opacity:1;" d="M 798.894531 61.996094 L 808.734375 61.996094 L 808.734375 19.976562 L 831.246094 19.976562 L 831.246094 11.5 L 776.378906 11.5 L 776.378906 19.976562 L 798.894531 19.976562 Z M 798.894531 61.996094 "/>
<path style=" stroke:none;fill-rule:evenodd;fill:rgb(70.414734%,72.428894%,73.568726%);fill-opacity:1;" d="M 215.484375 116.550781 C 219.417969 120.761719 225 126.808594 240.097656 126.808594 C 255.761719 126.808594 263.25 120.636719 263.25 113.195312 C 263.25 93.257812 223.035156 106.117188 223.035156 92.644531 C 223.035156 87.019531 229.566406 84.695312 238.828125 84.695312 C 251.386719 84.695312 255.828125 90.382812 257.730469 92.460938 L 261.789062 89.28125 C 258.617188 85.003906 251.132812 80.175781 238.957031 80.175781 C 226.394531 80.175781 217.324219 84.023438 217.324219 93.5 C 217.324219 111.546875 257.539062 99.675781 257.539062 113.195312 C 257.539062 120.085938 247.835938 122.042969 240.730469 122.042969 C 226.902344 122.042969 222.460938 116.429688 219.796875 113.011719 Z M 215.484375 116.550781 "/>
<path style=" stroke:none;fill-rule:evenodd;fill:rgb(70.414734%,72.428894%,73.568726%);fill-opacity:1;" d="M 291.472656 125.707031 L 297.058594 125.707031 L 297.058594 107.738281 L 320.84375 81.273438 L 313.546875 81.273438 L 294.265625 102.972656 L 274.980469 81.273438 L 267.6875 81.273438 L 291.472656 107.738281 Z M 291.472656 125.707031 "/>
<path style=" stroke:none;fill-rule:evenodd;fill:rgb(70.414734%,72.428894%,73.568726%);fill-opacity:1;" d="M 324.585938 116.550781 C 328.515625 120.761719 334.101562 126.808594 349.195312 126.808594 C 364.863281 126.808594 372.347656 120.636719 372.347656 113.195312 C 372.347656 93.257812 332.132812 106.117188 332.132812 92.644531 C 332.132812 87.019531 338.664062 84.695312 347.929688 84.695312 C 360.488281 84.695312 364.925781 90.382812 366.828125 92.460938 L 370.890625 89.28125 C 367.71875 85.003906 360.234375 80.175781 348.054688 80.175781 C 335.496094 80.175781 326.425781 84.023438 326.425781 93.5 C 326.425781 111.546875 366.640625 99.675781 366.640625 113.195312 C 366.640625 120.085938 356.9375 122.042969 349.832031 122.042969 C 336.003906 122.042969 331.5625 116.429688 328.898438 113.011719 Z M 324.585938 116.550781 "/>
<path style=" stroke:none;fill-rule:evenodd;fill:rgb(70.414734%,72.428894%,73.568726%);fill-opacity:1;" d="M 398.800781 125.707031 L 404.382812 125.707031 L 404.382812 86.042969 L 426.648438 86.042969 L 426.648438 81.273438 L 376.535156 81.273438 L 376.535156 86.042969 L 398.800781 86.042969 Z M 398.800781 125.707031 "/>
<path style=" stroke:none;fill-rule:evenodd;fill:rgb(70.414734%,72.428894%,73.568726%);fill-opacity:1;" d="M 434.003906 125.707031 L 475.867188 125.707031 L 475.867188 120.9375 L 439.585938 120.9375 L 439.585938 104.988281 L 469.273438 104.988281 L 469.273438 100.21875 L 439.585938 100.21875 L 439.585938 86.042969 L 475.109375 86.042969 L 475.109375 81.273438 L 434.003906 81.273438 Z M 434.003906 125.707031 "/>
<path style=" stroke:none;fill-rule:evenodd;fill:rgb(70.414734%,72.428894%,73.568726%);fill-opacity:1;" d="M 483.351562 125.707031 L 488.492188 125.707031 L 488.492188 86.042969 L 488.617188 86.042969 L 506.757812 125.707031 L 511.453125 125.707031 L 529.46875 86.042969 L 529.59375 86.042969 L 529.59375 125.707031 L 534.734375 125.707031 L 534.734375 81.273438 L 526.105469 81.273438 L 509.042969 118.679688 L 491.976562 81.273438 L 483.351562 81.273438 Z M 483.351562 125.707031 "/>
<path style=" stroke:none;fill-rule:evenodd;fill:rgb(70.414734%,72.428894%,73.568726%);fill-opacity:1;" d="M 542.914062 116.550781 C 546.847656 120.761719 552.429688 126.808594 567.527344 126.808594 C 583.191406 126.808594 590.683594 120.636719 590.683594 113.195312 C 590.683594 93.257812 550.464844 106.117188 550.464844 92.644531 C 550.464844 87.019531 557 84.695312 566.257812 84.695312 C 578.816406 84.695312 583.257812 90.382812 585.160156 92.460938 L 589.222656 89.28125 C 586.050781 85.003906 578.5625 80.175781 566.386719 80.175781 C 553.824219 80.175781 544.757812 84.023438 544.757812 93.5 C 544.757812 111.546875 584.972656 99.675781 584.972656 113.195312 C 584.972656 120.085938 575.269531 122.042969 568.160156 122.042969 C 554.332031 122.042969 549.894531 116.429688 547.226562 113.011719 Z M 542.914062 116.550781 "/>
<path style=" stroke:none;fill-rule:evenodd;fill:rgb(96.116638%,48.744202%,7.765198%);fill-opacity:1;" d="M 81.59375 46.980469 C 85.148438 42.960938 91.011719 41.113281 96.210938 42.113281 C 104.15625 43.878906 112.0625 45.8125 119.933594 47.894531 C 115.042969 54.058594 110.269531 60.320312 105.59375 66.660156 C 102.027344 71.1875 95.671875 73.191406 90.160156 71.816406 C 85.34375 70.464844 80.511719 69.160156 75.664062 67.910156 C 70.902344 66.53125 69.605469 62.046875 72.554688 58.097656 C 75.523438 54.355469 78.535156 50.648438 81.59375 46.980469 "/>
<path style=" stroke:none;fill-rule:nonzero;fill:rgb(70.414734%,72.428894%,73.568726%);fill-opacity:1;" d="M 70.652344 14.792969 C 74.042969 11.785156 78.945312 10.238281 83.417969 10.570312 C 90.390625 11.253906 97.34375 12.125 104.277344 13.15625 C 97.554688 19.664062 91.066406 26.417969 84.769531 33.359375 C 75.234375 31.660156 65.65625 30.234375 56.035156 29.152344 C 60.792969 24.246094 65.660156 19.453125 70.652344 14.792969 "/>
<path style=" stroke:none;fill-rule:nonzero;fill:rgb(70.414734%,72.428894%,73.568726%);fill-opacity:1;" d="M 30.207031 58.191406 C 36.945312 50.019531 43.90625 42.042969 51.128906 34.304688 C 60.777344 35.480469 70.378906 36.996094 79.933594 38.78125 C 72.777344 46.957031 65.867188 55.351562 59.171875 63.925781 C 49.566406 61.753906 39.914062 59.816406 30.207031 58.191406 "/>
<path style=" stroke:none;fill-rule:nonzero;fill:rgb(70.414734%,72.428894%,73.568726%);fill-opacity:1;" d="M 32.871094 100.128906 C 25.785156 98.09375 18.664062 96.164062 11.519531 94.359375 C 6.71875 92.949219 7.515625 87.816406 9.851562 84.464844 C 14.8125 77.691406 19.898438 71.015625 25.132812 64.453125 C 34.84375 66.199219 44.496094 68.25 54.097656 70.527344 C 46.773438 80.207031 39.710938 90.085938 32.871094 100.128906 "/>
<path style=" stroke:none;fill-rule:nonzero;fill:rgb(70.414734%,72.428894%,73.568726%);fill-opacity:1;" d="M 73.839844 113.066406 C 62.734375 109.28125 51.578125 105.679688 40.34375 102.316406 C 47.183594 92.160156 54.246094 82.164062 61.5625 72.355469 C 72.730469 75.175781 83.816406 78.289062 94.835938 81.632812 C 87.621094 91.960938 80.632812 102.449219 73.839844 113.066406 "/>
<path style=" stroke:none;fill-rule:nonzero;fill:rgb(70.414734%,72.428894%,73.568726%);fill-opacity:1;" d="M 140.070312 96.804688 C 135.105469 104.621094 130.234375 112.5 125.441406 120.425781 C 121.988281 125.742188 115.152344 127.917969 109.261719 125.886719 C 100.332031 122.492188 91.363281 119.199219 82.359375 116.023438 C 89.125 105.296875 96.082031 94.695312 103.265625 84.246094 C 115.621094 88.167969 127.882812 92.367188 140.070312 96.804688 "/>
<path style=" stroke:none;fill-rule:nonzero;fill:rgb(70.414734%,72.428894%,73.568726%);fill-opacity:1;" d="M 163.816406 61.128906 C 157.3125 70.4375 150.992188 79.867188 144.820312 89.394531 C 132.695312 85.054688 120.496094 80.964844 108.199219 77.15625 C 114.652344 68.003906 121.289062 58.976562 128.148438 50.128906 C 140.128906 53.488281 152.015625 57.167969 163.816406 61.128906 "/>
<path style=" stroke:none;fill-rule:nonzero;fill:rgb(70.414734%,72.428894%,73.568726%);fill-opacity:1;" d="M 150.992188 22.5625 C 159.257812 24.636719 167.480469 26.890625 175.660156 29.3125 C 179.292969 30.480469 183.566406 33.898438 180.699219 37.996094 C 176.425781 43.601562 172.246094 49.285156 168.140625 55.023438 C 156.425781 51.148438 144.625 47.558594 132.730469 44.296875 C 138.636719 36.894531 144.703125 29.628906 150.992188 22.5625 "/>
<path style=" stroke:none;fill-rule:nonzero;fill:rgb(70.414734%,72.428894%,73.568726%);fill-opacity:1;" d="M 111.464844 14.292969 C 122.070312 16.074219 132.609375 18.210938 143.085938 20.648438 C 136.707031 27.621094 130.550781 34.800781 124.570312 42.128906 C 113.816406 39.363281 103 36.878906 92.109375 34.738281 C 98.355469 27.722656 104.792969 20.890625 111.464844 14.292969 "/>
</g>
</svg>
