<?xml version="1.0" encoding="UTF-8"?>
<svg xmlns="http://www.w3.org/2000/svg" xmlns:xlink="http://www.w3.org/1999/xlink" width="841.89pt" height="595.28pt" viewBox="0 0 841.89 595.28" version="1.1">
<g id="surface1">
<path style=" stroke:none;fill-rule:nonzero;fill:rgb(0%,67.83905%,93.728638%);fill-opacity:1;" d="M 677.992188 210.355469 L 420.945312 51.492188 L 579.808594 210.355469 L 420.945312 369.21875 Z M 677.992188 210.355469 "/>
<path style=" stroke:none;fill-rule:nonzero;fill:rgb(70.414734%,72.428894%,73.568726%);fill-opacity:1;" d="M 420.945312 51.492188 L 163.898438 210.355469 L 420.945312 369.21875 L 262.078125 210.355469 Z M 420.945312 51.492188 "/>
<path style=" stroke:none;fill-rule:nonzero;fill:rgb(0%,67.83905%,93.728638%);fill-opacity:1;" d="M 170.574219 458.253906 C 169.445312 464.78125 164.769531 480.578125 137.851562 480.578125 C 119.3125 480.578125 104.726562 470.261719 104.726562 448.90625 C 104.726562 431.816406 115.445312 419.082031 138.738281 419.082031 C 164.933594 419.082031 168.800781 436.089844 169.6875 439.234375 L 158.242188 439.234375 C 157.597656 437.21875 153.085938 428.917969 139.382812 428.917969 C 123.183594 428.917969 116.414062 438.023438 116.414062 450.195312 C 116.414062 463.652344 126.164062 470.746094 138.738281 470.746094 C 152.117188 470.746094 158 462.769531 159.128906 458.253906 Z M 170.574219 458.253906 "/>
<path style=" stroke:none;fill-rule:nonzero;fill:rgb(0%,67.83905%,93.728638%);fill-opacity:1;" d="M 214.050781 446.566406 C 223.398438 446.566406 228.152344 445.199219 228.152344 438.265625 C 228.152344 431.414062 223.398438 430.046875 214.050781 430.046875 L 191.96875 430.046875 L 191.96875 446.566406 Z M 180.523438 420.535156 L 215.742188 420.535156 C 229.605469 420.535156 239.601562 423.675781 239.601562 438.023438 C 239.601562 448.824219 231.863281 454.789062 223.238281 455.269531 L 241.210938 479.128906 L 227.109375 479.128906 L 210.101562 456.078125 L 191.96875 456.078125 L 191.96875 479.128906 L 180.523438 479.128906 Z M 180.523438 420.535156 "/>
<path style=" stroke:none;fill-rule:nonzero;fill:rgb(0%,67.83905%,93.728638%);fill-opacity:1;" d="M 251.101562 420.535156 L 303.652344 420.535156 L 303.652344 430.367188 L 262.546875 430.367188 L 262.546875 443.988281 L 297.929688 443.988281 L 297.929688 453.820312 L 262.546875 453.820312 L 262.546875 469.296875 L 304.621094 469.296875 L 304.621094 479.128906 L 251.101562 479.128906 Z M 251.101562 420.535156 "/>
<path style=" stroke:none;fill-rule:nonzero;fill:rgb(0%,67.83905%,93.728638%);fill-opacity:1;" d="M 337.367188 469.296875 C 356.871094 469.296875 364.449219 463.332031 364.449219 449.628906 C 364.449219 435.285156 356.550781 430.367188 337.367188 430.367188 L 325.761719 430.367188 L 325.761719 469.296875 Z M 314.316406 420.535156 L 342.527344 420.535156 C 361.0625 420.535156 375.894531 428.351562 375.894531 449.46875 C 375.894531 469.457031 362.351562 479.128906 343.011719 479.128906 L 314.316406 479.128906 Z M 314.316406 420.535156 "/>
<path style=" stroke:none;fill-rule:nonzero;fill:rgb(0%,67.83905%,93.728638%);fill-opacity:1;" d="M 386.671875 420.535156 L 398.117188 420.535156 L 398.117188 479.128906 L 386.671875 479.128906 Z M 386.671875 420.535156 "/>
<path style=" stroke:none;fill-rule:nonzero;fill:rgb(0%,67.83905%,93.728638%);fill-opacity:1;" d="M 406.039062 420.535156 L 418.289062 420.535156 L 440.292969 467.28125 L 462.699219 420.535156 L 474.949219 420.535156 L 446.257812 479.128906 L 434.328125 479.128906 Z M 406.039062 420.535156 "/>
<path style=" stroke:none;fill-rule:nonzero;fill:rgb(0%,67.83905%,93.728638%);fill-opacity:1;" d="M 482.769531 420.535156 L 535.320312 420.535156 L 535.320312 430.367188 L 494.214844 430.367188 L 494.214844 443.988281 L 529.59375 443.988281 L 529.59375 453.820312 L 494.214844 453.820312 L 494.214844 469.296875 L 536.285156 469.296875 L 536.285156 479.128906 L 482.769531 479.128906 Z M 482.769531 420.535156 "/>
<path style=" stroke:none;fill-rule:nonzero;fill:rgb(0%,67.83905%,93.728638%);fill-opacity:1;" d="M 579.511719 446.566406 C 588.863281 446.566406 593.617188 445.199219 593.617188 438.265625 C 593.617188 431.414062 588.863281 430.046875 579.511719 430.046875 L 557.425781 430.046875 L 557.425781 446.566406 Z M 545.984375 420.535156 L 581.203125 420.535156 C 595.066406 420.535156 605.0625 423.675781 605.0625 438.023438 C 605.0625 448.824219 597.324219 454.789062 588.699219 455.269531 L 606.671875 479.128906 L 592.570312 479.128906 L 575.5625 456.078125 L 557.425781 456.078125 L 557.425781 479.128906 L 545.984375 479.128906 Z M 545.984375 420.535156 "/>
<path style=" stroke:none;fill-rule:nonzero;fill:rgb(0%,67.83905%,93.728638%);fill-opacity:1;" d="M 661.570312 438.347656 C 659.714844 433.109375 654.960938 428.59375 641.015625 428.59375 C 633.28125 428.59375 625.460938 430.527344 625.460938 435.929688 C 625.460938 438.425781 626.914062 441.085938 638.597656 442.539062 L 652.460938 444.632812 C 665.597656 446.648438 673.335938 451.726562 673.335938 461.558594 C 673.335938 475.421875 660.121094 480.578125 644.484375 480.578125 C 619.335938 480.578125 613.210938 468.167969 611.839844 463.734375 L 622.882812 460.269531 C 624.976562 464.539062 629.332031 470.746094 644.804688 470.746094 C 654.15625 470.746094 661.890625 467.683594 661.890625 462.605469 C 661.890625 458.820312 657.539062 456.320312 649.15625 455.273438 L 635.132812 453.335938 C 621.59375 451.484375 614.015625 445.601562 614.015625 436.65625 C 614.015625 419.082031 636.828125 419.082031 641.339844 419.082031 C 666.566406 419.082031 670.917969 430.769531 672.371094 434.800781 Z M 661.570312 438.347656 "/>
<path style=" stroke:none;fill-rule:nonzero;fill:rgb(0%,67.83905%,93.728638%);fill-opacity:1;" d="M 683.648438 420.535156 L 736.195312 420.535156 L 736.195312 430.367188 L 695.089844 430.367188 L 695.089844 443.988281 L 730.472656 443.988281 L 730.472656 453.820312 L 695.089844 453.820312 L 695.089844 469.296875 L 737.164062 469.296875 L 737.164062 479.128906 L 683.648438 479.128906 Z M 683.648438 420.535156 "/>
<path style=" stroke:none;fill-rule:nonzero;fill:rgb(70.414734%,72.428894%,73.568726%);fill-opacity:1;" d="M 336.039062 504.082031 L 370.578125 504.082031 L 370.578125 508.238281 L 340.730469 508.238281 L 340.730469 520.601562 L 365.675781 520.601562 L 365.675781 524.761719 L 340.730469 524.761719 L 340.730469 538.671875 L 371.21875 538.671875 L 371.21875 542.828125 L 336.039062 542.828125 Z M 336.039062 504.082031 "/>
<path style=" stroke:none;fill-rule:nonzero;fill:rgb(70.414734%,72.428894%,73.568726%);fill-opacity:1;" d="M 416.074219 532.542969 C 411.917969 540.589844 404.722656 543.789062 395.289062 543.789062 C 380.257812 543.789062 373.167969 534.78125 373.167969 523.535156 C 373.167969 510.210938 382.175781 503.121094 395.234375 503.121094 C 403.550781 503.121094 412.023438 506.320312 415.488281 514.207031 L 411.4375 516.074219 C 408.71875 509.730469 402.695312 507.066406 395.289062 507.066406 C 384.203125 507.066406 377.964844 513.089844 377.964844 524.121094 C 377.964844 533.019531 383.988281 539.632812 395.714844 539.632812 C 403.390625 539.632812 408.71875 536.433594 411.917969 530.515625 Z M 416.074219 532.542969 "/>
<path style=" stroke:none;fill-rule:nonzero;fill:rgb(70.414734%,72.428894%,73.568726%);fill-opacity:1;" d="M 427.78125 538.671875 L 441.476562 538.671875 C 445.316406 538.671875 458.160156 538.191406 458.160156 522.949219 C 458.160156 511.597656 450.113281 508.238281 442.222656 508.238281 L 427.78125 508.238281 Z M 423.089844 504.078125 L 442.222656 504.078125 C 454.269531 504.078125 462.957031 510.421875 462.957031 523.109375 C 462.957031 538.886719 450.964844 542.828125 440.730469 542.828125 L 423.089844 542.828125 Z M 423.089844 504.078125 "/>
<path style=" stroke:none;fill-rule:nonzero;fill:rgb(70.414734%,72.428894%,73.568726%);fill-opacity:1;" d="M 470.921875 531.742188 C 473.160156 534.726562 476.890625 539.632812 488.511719 539.632812 C 494.480469 539.632812 502.632812 537.925781 502.632812 531.902344 C 502.632812 520.125 468.84375 530.464844 468.84375 514.738281 C 468.84375 506.476562 476.464844 503.121094 487.015625 503.121094 C 497.25 503.121094 503.539062 507.332031 506.203125 511.0625 L 502.792969 513.835938 C 501.195312 512.023438 497.464844 507.066406 486.910156 507.066406 C 479.128906 507.066406 473.640625 509.089844 473.640625 513.996094 C 473.640625 525.71875 507.429688 514.527344 507.429688 531.902344 C 507.429688 538.40625 501.140625 543.789062 487.976562 543.789062 C 475.289062 543.789062 470.601562 538.511719 467.296875 534.835938 Z M 470.921875 531.742188 "/>
</g>
</svg>
