<?xml version="1.0" encoding="UTF-8"?>
<svg xmlns="http://www.w3.org/2000/svg" xmlns:xlink="http://www.w3.org/1999/xlink" width="812pt" height="584.695pt" viewBox="0 0 812 584.695" version="1.1">
<g id="surface1">
<path style=" stroke:none;fill-rule:evenodd;fill:rgb(96.116638%,48.744202%,7.765198%);fill-opacity:1;" d="M 376.542969 124.300781 C 387.585938 111.804688 405.808594 106.070312 421.976562 109.179688 C 446.667969 114.671875 471.25 120.679688 495.710938 127.144531 C 480.515625 146.3125 465.679688 165.773438 451.136719 185.472656 C 440.058594 199.554688 420.304688 205.78125 403.175781 201.507812 C 388.199219 197.296875 373.179688 193.246094 358.117188 189.359375 C 343.316406 185.074219 339.277344 171.136719 348.449219 158.859375 C 357.675781 147.234375 367.042969 135.710938 376.542969 124.300781 "/>
<path style=" stroke:none;fill-rule:nonzero;fill:rgb(70.414734%,72.428894%,73.568726%);fill-opacity:1;" d="M 342.539062 24.265625 C 353.074219 14.910156 368.308594 10.101562 382.207031 11.140625 C 403.886719 13.261719 425.503906 15.96875 447.054688 19.167969 C 426.152344 39.410156 405.984375 60.394531 386.417969 81.96875 C 356.773438 76.683594 327.007812 72.25 297.105469 68.898438 C 311.886719 53.644531 327.023438 38.738281 342.539062 24.265625 "/>
<path style=" stroke:none;fill-rule:nonzero;fill:rgb(70.414734%,72.428894%,73.568726%);fill-opacity:1;" d="M 216.824219 159.148438 C 237.761719 133.75 259.398438 108.960938 281.847656 84.910156 C 311.839844 88.5625 341.679688 93.269531 371.390625 98.824219 C 349.136719 124.234375 327.65625 150.335938 306.847656 176.980469 C 277 170.226562 246.996094 164.199219 216.824219 159.148438 "/>
<path style=" stroke:none;fill-rule:nonzero;fill:rgb(70.414734%,72.428894%,73.568726%);fill-opacity:1;" d="M 225.105469 289.503906 C 203.070312 283.183594 180.945312 277.179688 158.730469 271.570312 C 143.816406 267.191406 146.296875 251.230469 153.546875 240.8125 C 168.96875 219.761719 184.785156 199.011719 201.046875 178.609375 C 231.230469 184.050781 261.230469 190.417969 291.078125 197.5 C 268.3125 227.589844 246.363281 258.289062 225.105469 289.503906 "/>
<path style=" stroke:none;fill-rule:nonzero;fill:rgb(70.414734%,72.428894%,73.568726%);fill-opacity:1;" d="M 352.441406 329.722656 C 317.921875 317.949219 283.242188 306.753906 248.332031 296.304688 C 269.59375 264.734375 291.542969 233.664062 314.285156 203.183594 C 348.992188 211.949219 383.453125 221.617188 417.707031 232.015625 C 395.273438 264.109375 373.558594 296.710938 352.441406 329.722656 "/>
<path style=" stroke:none;fill-rule:nonzero;fill:rgb(70.414734%,72.428894%,73.568726%);fill-opacity:1;" d="M 558.308594 279.167969 C 542.871094 303.46875 527.726562 327.953125 512.828125 352.59375 C 502.09375 369.121094 480.847656 375.886719 462.535156 369.5625 C 434.785156 359.007812 406.910156 348.777344 378.921875 338.90625 C 399.957031 305.566406 421.582031 272.613281 443.902344 240.140625 C 482.304688 252.324219 520.425781 265.375 558.308594 279.167969 "/>
<path style=" stroke:none;fill-rule:nonzero;fill:rgb(70.414734%,72.428894%,73.568726%);fill-opacity:1;" d="M 632.113281 168.289062 C 611.90625 197.207031 592.257812 226.53125 573.066406 256.144531 C 535.386719 242.65625 497.457031 229.9375 459.242188 218.101562 C 479.300781 189.648438 499.925781 161.597656 521.246094 134.085938 C 558.480469 144.535156 595.433594 155.96875 632.113281 168.289062 "/>
<path style=" stroke:none;fill-rule:nonzero;fill:rgb(70.414734%,72.428894%,73.568726%);fill-opacity:1;" d="M 592.253906 48.410156 C 617.945312 54.855469 643.507812 61.863281 668.925781 69.390625 C 680.21875 73.019531 693.5 83.640625 684.59375 96.375 C 671.308594 113.808594 658.316406 131.472656 645.554688 149.304688 C 609.148438 137.261719 572.460938 126.101562 535.496094 115.964844 C 553.84375 92.953125 572.710938 70.382812 592.253906 48.410156 "/>
<path style=" stroke:none;fill-rule:nonzero;fill:rgb(70.414734%,72.428894%,73.568726%);fill-opacity:1;" d="M 469.390625 22.703125 C 502.355469 28.234375 535.109375 34.875 567.667969 42.449219 C 547.847656 64.132812 528.714844 86.449219 510.121094 109.226562 C 476.699219 100.628906 443.074219 92.914062 409.222656 86.25 C 428.648438 64.453125 448.648438 43.210938 469.390625 22.703125 "/>
<path style=" stroke:none;fill-rule:evenodd;fill:rgb(70.414734%,72.428894%,73.568726%);fill-opacity:1;" d="M 223.644531 560.347656 C 227.433594 564.402344 232.816406 570.230469 247.355469 570.230469 C 262.457031 570.230469 269.664062 564.285156 269.664062 557.117188 C 269.664062 537.902344 230.917969 550.296875 230.917969 537.316406 C 230.917969 531.894531 237.210938 529.660156 246.136719 529.660156 C 258.238281 529.660156 262.515625 535.136719 264.347656 537.136719 L 268.261719 534.078125 C 265.207031 529.953125 257.992188 525.300781 246.257812 525.300781 C 234.15625 525.300781 225.417969 529.007812 225.417969 538.136719 C 225.417969 555.527344 264.167969 544.085938 264.167969 557.117188 C 264.167969 563.757812 254.816406 565.636719 247.96875 565.636719 C 234.648438 565.636719 230.371094 560.226562 227.800781 556.9375 Z M 223.644531 560.347656 "/>
<path style=" stroke:none;fill-rule:evenodd;fill:rgb(70.414734%,72.428894%,73.568726%);fill-opacity:1;" d="M 296.863281 569.171875 L 302.242188 569.171875 L 302.242188 551.859375 L 325.160156 526.359375 L 318.132812 526.359375 L 299.550781 547.265625 L 280.972656 526.359375 L 273.945312 526.359375 L 296.863281 551.859375 Z M 296.863281 569.171875 "/>
<path style=" stroke:none;fill-rule:evenodd;fill:rgb(70.414734%,72.428894%,73.568726%);fill-opacity:1;" d="M 328.765625 560.347656 C 332.554688 564.402344 337.933594 570.230469 352.480469 570.230469 C 367.574219 570.230469 374.789062 564.285156 374.789062 557.117188 C 374.789062 537.902344 336.039062 550.296875 336.039062 537.316406 C 336.039062 531.894531 342.332031 529.660156 351.257812 529.660156 C 363.359375 529.660156 367.636719 535.136719 369.46875 537.136719 L 373.382812 534.078125 C 370.328125 529.953125 363.113281 525.300781 351.378906 525.300781 C 339.277344 525.300781 330.539062 529.007812 330.539062 538.136719 C 330.539062 555.527344 369.285156 544.085938 369.285156 557.117188 C 369.285156 563.757812 359.933594 565.636719 353.089844 565.636719 C 339.765625 565.636719 335.488281 560.226562 332.921875 556.9375 Z M 328.765625 560.347656 "/>
<path style=" stroke:none;fill-rule:evenodd;fill:rgb(70.414734%,72.428894%,73.568726%);fill-opacity:1;" d="M 400.273438 569.171875 L 405.652344 569.171875 L 405.652344 530.953125 L 427.101562 530.953125 L 427.101562 526.359375 L 378.820312 526.359375 L 378.820312 530.953125 L 400.273438 530.953125 Z M 400.273438 569.171875 "/>
<path style=" stroke:none;fill-rule:evenodd;fill:rgb(70.414734%,72.428894%,73.568726%);fill-opacity:1;" d="M 434.191406 569.171875 L 474.527344 569.171875 L 474.527344 564.578125 L 439.570312 564.578125 L 439.570312 549.207031 L 468.171875 549.207031 L 468.171875 544.613281 L 439.570312 544.613281 L 439.570312 530.953125 L 473.796875 530.953125 L 473.796875 526.359375 L 434.191406 526.359375 Z M 434.191406 569.171875 "/>
<path style=" stroke:none;fill-rule:evenodd;fill:rgb(70.414734%,72.428894%,73.568726%);fill-opacity:1;" d="M 481.738281 569.171875 L 486.691406 569.171875 L 486.691406 530.953125 L 486.8125 530.953125 L 504.296875 569.171875 L 508.8125 569.171875 L 526.175781 530.953125 L 526.296875 530.953125 L 526.296875 569.171875 L 531.246094 569.171875 L 531.246094 526.359375 L 522.933594 526.359375 L 506.492188 562.398438 L 490.050781 526.359375 L 481.738281 526.359375 Z M 481.738281 569.171875 "/>
<path style=" stroke:none;fill-rule:evenodd;fill:rgb(70.414734%,72.428894%,73.568726%);fill-opacity:1;" d="M 539.132812 560.347656 C 542.917969 564.402344 548.296875 570.230469 562.84375 570.230469 C 577.941406 570.230469 585.152344 564.285156 585.152344 557.117188 C 585.152344 537.902344 546.402344 550.296875 546.402344 537.316406 C 546.402344 531.894531 552.699219 529.660156 561.621094 529.660156 C 573.722656 529.660156 578 535.136719 579.835938 537.136719 L 583.746094 534.078125 C 580.691406 529.953125 573.476562 525.300781 561.746094 525.300781 C 549.644531 525.300781 540.902344 529.007812 540.902344 538.136719 C 540.902344 555.527344 579.652344 544.085938 579.652344 557.117188 C 579.652344 563.757812 570.300781 565.636719 563.453125 565.636719 C 550.132812 565.636719 545.855469 560.226562 543.285156 556.9375 Z M 539.132812 560.347656 "/>
<path style=" stroke:none;fill-rule:evenodd;fill:rgb(96.116638%,48.744202%,7.765198%);fill-opacity:1;" d="M 72.519531 476.390625 C 71.285156 481.347656 64.84375 490.105469 50.199219 490.105469 C 36.433594 490.105469 25.757812 482.316406 25.757812 467.546875 C 25.757812 454.1875 33.167969 444.191406 50.902344 444.191406 C 65.902344 444.191406 70.84375 453.304688 71.550781 455.515625 L 84.078125 455.515625 C 83.109375 452.066406 78.875 433.398438 50.199219 433.398438 C 24.699219 433.398438 12.964844 447.378906 12.964844 466.128906 C 12.964844 489.574219 28.933594 500.898438 49.226562 500.898438 C 78.695312 500.898438 83.8125 483.558594 85.050781 476.390625 Z M 72.519531 476.390625 "/>
<path style=" stroke:none;fill-rule:evenodd;fill:rgb(96.116638%,48.744202%,7.765198%);fill-opacity:1;" d="M 91.929688 467.632812 C 91.929688 480.992188 99.78125 500.898438 130.132812 500.898438 C 160.484375 500.898438 168.335938 480.992188 168.335938 467.632812 C 168.335938 450.03125 158.367188 433.398438 130.132812 433.398438 C 101.898438 433.398438 91.929688 450.03125 91.929688 467.632812 M 130.132812 490.105469 C 118.132812 490.105469 104.460938 485.152344 104.460938 466.929688 C 104.460938 451.445312 115.488281 444.195312 130.132812 444.195312 C 144.78125 444.195312 155.808594 451.445312 155.808594 466.929688 C 155.808594 485.152344 142.132812 490.105469 130.132812 490.105469 "/>
<path style=" stroke:none;fill-rule:evenodd;fill:rgb(96.116638%,48.744202%,7.765198%);fill-opacity:1;" d="M 179.363281 499.304688 L 191.363281 499.304688 L 191.363281 451.179688 L 236.007812 499.304688 L 247.476562 499.304688 L 247.476562 434.992188 L 235.476562 434.992188 L 235.476562 481.433594 L 192.597656 434.992188 L 179.363281 434.992188 Z M 179.363281 499.304688 "/>
<path style=" stroke:none;fill-rule:evenodd;fill:rgb(96.116638%,48.744202%,7.765198%);fill-opacity:1;" d="M 317.53125 476.390625 C 316.296875 481.347656 309.855469 490.105469 295.210938 490.105469 C 281.445312 490.105469 270.769531 482.316406 270.769531 467.546875 C 270.769531 454.1875 278.179688 444.191406 295.914062 444.191406 C 310.910156 444.191406 315.851562 453.304688 316.558594 455.515625 L 329.089844 455.515625 C 328.117188 452.066406 323.882812 433.398438 295.210938 433.398438 C 269.710938 433.398438 257.972656 447.378906 257.972656 466.128906 C 257.972656 489.574219 273.945312 500.898438 294.238281 500.898438 C 323.707031 500.898438 328.824219 483.558594 330.058594 476.390625 Z M 317.53125 476.390625 "/>
<path style=" stroke:none;fill-rule:evenodd;fill:rgb(96.116638%,48.744202%,7.765198%);fill-opacity:1;" d="M 409.199219 434.992188 L 396.671875 434.992188 L 396.671875 470.820312 C 396.671875 481.433594 392.878906 490.105469 375.144531 490.105469 C 357.40625 490.105469 353.613281 481.433594 353.613281 470.820312 L 353.613281 434.992188 L 341.089844 434.992188 L 341.089844 471.703125 C 341.089844 492.40625 354.230469 500.898438 375.144531 500.898438 C 396.054688 500.898438 409.199219 492.40625 409.199219 471.703125 Z M 409.199219 434.992188 "/>
<path style=" stroke:none;fill-rule:evenodd;fill:rgb(96.116638%,48.744202%,7.765198%);fill-opacity:1;" d="M 424.375 499.304688 L 436.902344 499.304688 L 436.902344 474.003906 L 456.757812 474.003906 L 475.367188 499.304688 L 490.8125 499.304688 L 471.132812 473.117188 C 480.578125 472.585938 489.046875 466.042969 489.046875 454.1875 C 489.046875 438.4375 478.105469 434.992188 462.933594 434.992188 L 424.375 434.992188 Z M 436.902344 463.5625 L 436.902344 445.429688 L 461.074219 445.429688 C 471.3125 445.429688 476.519531 446.933594 476.519531 454.453125 C 476.519531 462.0625 471.3125 463.5625 461.074219 463.5625 Z M 436.902344 463.5625 "/>
<path style=" stroke:none;fill-rule:evenodd;fill:rgb(96.116638%,48.744202%,7.765198%);fill-opacity:1;" d="M 502.808594 499.304688 L 515.335938 499.304688 L 515.335938 474.003906 L 535.1875 474.003906 L 553.804688 499.304688 L 569.246094 499.304688 L 549.570312 473.117188 C 559.011719 472.585938 567.480469 466.042969 567.480469 454.1875 C 567.480469 438.4375 556.539062 434.992188 541.363281 434.992188 L 502.808594 434.992188 Z M 515.335938 463.5625 L 515.335938 445.429688 L 539.511719 445.429688 C 549.746094 445.429688 554.953125 446.933594 554.953125 454.453125 C 554.953125 462.0625 549.746094 463.5625 539.511719 463.5625 Z M 515.335938 463.5625 "/>
<path style=" stroke:none;fill-rule:evenodd;fill:rgb(96.116638%,48.744202%,7.765198%);fill-opacity:1;" d="M 581.242188 499.304688 L 639.828125 499.304688 L 639.828125 488.511719 L 593.773438 488.511719 L 593.773438 471.527344 L 632.507812 471.527344 L 632.507812 460.734375 L 593.773438 460.734375 L 593.773438 445.785156 L 638.769531 445.785156 L 638.769531 434.992188 L 581.242188 434.992188 Z M 581.242188 499.304688 "/>
<path style=" stroke:none;fill-rule:evenodd;fill:rgb(96.116638%,48.744202%,7.765198%);fill-opacity:1;" d="M 649.890625 499.304688 L 661.886719 499.304688 L 661.886719 451.179688 L 706.53125 499.304688 L 717.996094 499.304688 L 717.996094 434.992188 L 706 434.992188 L 706 481.433594 L 663.121094 434.992188 L 649.890625 434.992188 Z M 649.890625 499.304688 "/>
<path style=" stroke:none;fill-rule:evenodd;fill:rgb(96.116638%,48.744202%,7.765198%);fill-opacity:1;" d="M 756.027344 499.304688 L 768.554688 499.304688 L 768.554688 445.785156 L 797.226562 445.785156 L 797.226562 434.992188 L 727.351562 434.992188 L 727.351562 445.785156 L 756.027344 445.785156 Z M 756.027344 499.304688 "/>
</g>
</svg>
