<?xml version="1.0" encoding="UTF-8"?>
<svg xmlns="http://www.w3.org/2000/svg" xmlns:xlink="http://www.w3.org/1999/xlink" width="983.839pt" height="271.937pt" viewBox="0 0 983.839 271.937" version="1.1">
<g id="surface1">
<path style=" stroke:none;fill-rule:nonzero;fill:rgb(70.414734%,72.428894%,73.568726%);fill-opacity:1;" d="M 153.390625 65.441406 L 40.320312 135.320312 L 153.390625 205.199219 L 83.511719 135.320312 Z M 153.390625 65.441406 "/>
<path style=" stroke:none;fill-rule:nonzero;fill:rgb(0%,67.83905%,93.728638%);fill-opacity:1;" d="M 266.457031 135.320312 L 153.390625 65.441406 L 223.269531 135.320312 L 153.390625 205.199219 Z M 266.457031 135.320312 "/>
<path style=" stroke:none;fill-rule:nonzero;fill:rgb(0%,67.83905%,93.728638%);fill-opacity:1;" d="M 376.925781 104.609375 C 375.800781 111.140625 371.125 126.9375 344.207031 126.9375 C 325.667969 126.9375 311.078125 116.621094 311.078125 95.261719 C 311.078125 78.175781 321.800781 65.441406 345.089844 65.441406 C 371.285156 65.441406 375.15625 82.445312 376.039062 85.589844 L 364.597656 85.589844 C 363.953125 83.574219 359.4375 75.273438 345.738281 75.273438 C 329.535156 75.273438 322.765625 84.382812 322.765625 96.550781 C 322.765625 110.011719 332.519531 117.101562 345.089844 117.101562 C 358.472656 117.101562 364.355469 109.125 365.484375 104.609375 Z M 376.925781 104.609375 "/>
<path style=" stroke:none;fill-rule:nonzero;fill:rgb(0%,67.83905%,93.728638%);fill-opacity:1;" d="M 420.402344 92.925781 C 429.753906 92.925781 434.507812 91.554688 434.507812 84.621094 C 434.507812 77.773438 429.753906 76.402344 420.402344 76.402344 L 398.320312 76.402344 L 398.320312 92.925781 Z M 386.875 66.894531 L 422.09375 66.894531 C 435.957031 66.894531 445.953125 70.035156 445.953125 84.378906 C 445.953125 95.179688 438.214844 101.144531 429.589844 101.628906 L 447.566406 125.488281 L 433.460938 125.488281 L 416.453125 102.4375 L 398.320312 102.4375 L 398.320312 125.488281 L 386.875 125.488281 Z M 386.875 66.894531 "/>
<path style=" stroke:none;fill-rule:nonzero;fill:rgb(0%,67.83905%,93.728638%);fill-opacity:1;" d="M 457.457031 66.890625 L 510.003906 66.890625 L 510.003906 76.722656 L 468.902344 76.722656 L 468.902344 90.34375 L 504.28125 90.34375 L 504.28125 100.175781 L 468.902344 100.175781 L 468.902344 115.652344 L 510.972656 115.652344 L 510.972656 125.488281 L 457.457031 125.488281 Z M 457.457031 66.890625 "/>
<path style=" stroke:none;fill-rule:nonzero;fill:rgb(0%,67.83905%,93.728638%);fill-opacity:1;" d="M 543.722656 115.652344 C 563.226562 115.652344 570.800781 109.6875 570.800781 95.988281 C 570.800781 81.640625 562.902344 76.722656 543.722656 76.722656 L 532.117188 76.722656 L 532.117188 115.652344 Z M 520.671875 66.890625 L 548.878906 66.890625 C 567.417969 66.890625 582.246094 74.710938 582.246094 95.824219 C 582.246094 115.8125 568.707031 125.484375 549.363281 125.484375 L 520.671875 125.484375 Z M 520.671875 66.890625 "/>
<path style=" stroke:none;fill-rule:nonzero;fill:rgb(0%,67.83905%,93.728638%);fill-opacity:1;" d="M 593.023438 66.890625 L 604.46875 66.890625 L 604.46875 125.484375 L 593.023438 125.484375 Z M 593.023438 66.890625 "/>
<path style=" stroke:none;fill-rule:nonzero;fill:rgb(0%,67.83905%,93.728638%);fill-opacity:1;" d="M 612.390625 66.890625 L 624.644531 66.890625 L 646.644531 113.636719 L 669.050781 66.890625 L 681.300781 66.890625 L 652.609375 125.488281 L 640.679688 125.488281 Z M 612.390625 66.890625 "/>
<path style=" stroke:none;fill-rule:nonzero;fill:rgb(0%,67.83905%,93.728638%);fill-opacity:1;" d="M 689.121094 66.890625 L 741.671875 66.890625 L 741.671875 76.722656 L 700.566406 76.722656 L 700.566406 90.34375 L 735.949219 90.34375 L 735.949219 100.175781 L 700.566406 100.175781 L 700.566406 115.652344 L 742.636719 115.652344 L 742.636719 125.488281 L 689.121094 125.488281 Z M 689.121094 66.890625 "/>
<path style=" stroke:none;fill-rule:nonzero;fill:rgb(0%,67.83905%,93.728638%);fill-opacity:1;" d="M 785.863281 92.925781 C 795.214844 92.925781 799.96875 91.554688 799.96875 84.621094 C 799.96875 77.773438 795.214844 76.402344 785.863281 76.402344 L 763.78125 76.402344 L 763.78125 92.925781 Z M 752.335938 66.894531 L 787.558594 66.894531 C 801.421875 66.894531 811.414062 70.035156 811.414062 84.378906 C 811.414062 95.179688 803.675781 101.144531 795.050781 101.628906 L 813.027344 125.488281 L 798.921875 125.488281 L 781.914062 102.4375 L 763.78125 102.4375 L 763.78125 125.488281 L 752.335938 125.488281 Z M 752.335938 66.894531 "/>
<path style=" stroke:none;fill-rule:nonzero;fill:rgb(0%,67.83905%,93.728638%);fill-opacity:1;" d="M 867.921875 84.703125 C 866.070312 79.464844 861.3125 74.949219 847.371094 74.949219 C 839.632812 74.949219 831.816406 76.886719 831.816406 82.285156 C 831.816406 84.785156 833.265625 87.441406 844.953125 88.894531 L 858.816406 90.988281 C 871.953125 93.007812 879.691406 98.082031 879.691406 107.914062 C 879.691406 121.777344 866.472656 126.9375 850.835938 126.9375 C 825.691406 126.9375 819.566406 114.523438 818.195312 110.09375 L 829.234375 106.625 C 831.332031 110.898438 835.683594 117.101562 851.15625 117.101562 C 860.507812 117.101562 868.246094 114.039062 868.246094 108.964844 C 868.246094 105.175781 863.894531 102.675781 855.511719 101.628906 L 841.484375 99.695312 C 827.945312 97.84375 820.371094 91.957031 820.371094 83.011719 C 820.371094 65.441406 843.179688 65.441406 847.691406 65.441406 C 872.921875 65.441406 877.273438 77.125 878.722656 81.15625 Z M 867.921875 84.703125 "/>
<path style=" stroke:none;fill-rule:nonzero;fill:rgb(0%,67.83905%,93.728638%);fill-opacity:1;" d="M 890 66.890625 L 942.550781 66.890625 L 942.550781 76.722656 L 901.445312 76.722656 L 901.445312 90.34375 L 936.828125 90.34375 L 936.828125 100.175781 L 901.445312 100.175781 L 901.445312 115.652344 L 943.515625 115.652344 L 943.515625 125.488281 L 890 125.488281 Z M 890 66.890625 "/>
<path style=" stroke:none;fill-rule:nonzero;fill:rgb(70.414734%,72.428894%,73.568726%);fill-opacity:1;" d="M 316.078125 146.453125 L 368.304688 146.453125 L 368.304688 152.738281 L 323.167969 152.738281 L 323.167969 171.4375 L 360.890625 171.4375 L 360.890625 177.722656 L 323.167969 177.722656 L 323.167969 198.761719 L 369.269531 198.761719 L 369.269531 205.046875 L 316.078125 205.046875 Z M 316.078125 146.453125 "/>
<path style=" stroke:none;fill-rule:nonzero;fill:rgb(70.414734%,72.428894%,73.568726%);fill-opacity:1;" d="M 436.546875 189.488281 C 430.261719 201.660156 419.378906 206.496094 405.113281 206.496094 C 382.386719 206.496094 371.667969 192.875 371.667969 175.867188 C 371.667969 155.71875 385.289062 145 405.035156 145 C 417.605469 145 430.421875 149.835938 435.660156 161.765625 L 429.535156 164.585938 C 425.425781 154.996094 416.316406 150.964844 405.113281 150.964844 C 388.351562 150.964844 378.921875 160.070312 378.921875 176.757812 C 378.921875 190.21875 388.027344 200.210938 405.757812 200.210938 C 417.363281 200.210938 425.425781 195.375 430.261719 186.425781 Z M 436.546875 189.488281 "/>
<path style=" stroke:none;fill-rule:nonzero;fill:rgb(70.414734%,72.428894%,73.568726%);fill-opacity:1;" d="M 453.75 198.757812 L 474.460938 198.757812 C 480.265625 198.757812 499.6875 198.035156 499.6875 174.984375 C 499.6875 157.816406 487.519531 152.738281 475.589844 152.738281 L 453.75 152.738281 Z M 446.65625 146.453125 L 475.589844 146.453125 C 493.804688 146.453125 506.941406 156.042969 506.941406 175.222656 C 506.941406 199.082031 488.808594 205.046875 473.335938 205.046875 L 446.65625 205.046875 Z M 446.65625 146.453125 "/>
<path style=" stroke:none;fill-rule:nonzero;fill:rgb(70.414734%,72.428894%,73.568726%);fill-opacity:1;" d="M 518.511719 188.28125 C 521.894531 192.796875 527.535156 200.210938 545.109375 200.210938 C 554.132812 200.210938 566.464844 197.632812 566.464844 188.523438 C 566.464844 170.710938 515.367188 186.347656 515.367188 162.570312 C 515.367188 150.078125 526.894531 145 542.851562 145 C 558.324219 145 567.835938 151.367188 571.863281 157.011719 L 566.707031 161.199219 C 564.289062 158.460938 558.648438 150.964844 542.691406 150.964844 C 530.921875 150.964844 522.621094 154.027344 522.621094 161.441406 C 522.621094 179.175781 573.71875 162.25 573.71875 188.523438 C 573.71875 198.355469 564.210938 206.496094 544.300781 206.496094 C 525.117188 206.496094 518.027344 198.515625 513.03125 192.957031 Z M 518.511719 188.28125 "/>
</g>
</svg>
